<svg xmlns="http://www.w3.org/2000/svg" viewBox="0 0 1200 630" role="img" aria-label="Dharma Développement">
  <defs>
    <pattern id="grid" width="56" height="56" patternUnits="userSpaceOnUse">
      <path d="M56 0H0v56" fill="none" stroke="#111214" stroke-opacity=".08"/>
    </pattern>
  </defs>
  <rect width="1200" height="630" fill="#f4f2ec"/>
  <rect width="1200" height="630" fill="url(#grid)"/>
  <path d="M58 86h780" stroke="#111214" stroke-opacity=".55" stroke-width="2"/>
  <text x="58" y="72" fill="#111214" font-family="IBM Plex Mono, monospace" font-size="22" font-weight="600">PRODUITS NUMÉRIQUES PROPRIÉTAIRES</text>
  <text x="58" y="218" fill="#111214" font-family="Space Grotesk, Inter, sans-serif" font-size="88" font-weight="700">Dharma</text>
  <text x="58" y="306" fill="#111214" font-family="Space Grotesk, Inter, sans-serif" font-size="88" font-weight="700">Développement</text>
  <text x="62" y="374" fill="#3f474f" font-family="Inter, sans-serif" font-size="30">Web, logiciel, SaaS, automatisation et outils IA utiles.</text>
  <g transform="translate(908 92)">
    <path d="M80 0h72l80 80v72l-80 80H80L0 152V80L80 0Z" fill="none" stroke="#111214" stroke-width="10"/>
    <path d="M90 36h52l54 54v52l-54 54H90l-54-54V90l54-54Z" fill="none" stroke="#111214" stroke-width="7"/>
    <path d="M90 90h52v52H90z" fill="none" stroke="#111214" stroke-width="7"/>
  </g>
  <g transform="translate(62 492)" fill="none" stroke="#111214" stroke-opacity=".55">
    <rect width="190" height="44"/>
    <rect x="216" width="190" height="44"/>
    <rect x="432" width="190" height="44"/>
    <rect x="648" width="190" height="44"/>
  </g>
  <g transform="translate(84 522)" fill="#111214" font-family="IBM Plex Mono, monospace" font-size="16" font-weight="600">
    <text>MODULE</text>
    <text x="216">SYSTÈME</text>
    <text x="432">DONNÉES</text>
    <text x="648">INTERFACE</text>
  </g>
</svg>
